<?xml version="1.0" encoding="utf-8" standalone="no"?>
<!DOCTYPE svg PUBLIC "-//W3C//DTD SVG 1.1//EN"
  "http://www.w3.org/Graphics/SVG/1.1/DTD/svg11.dtd">
<svg xmlns:xlink="http://www.w3.org/1999/xlink" width="576pt" height="396pt" viewBox="0 0 576 396" xmlns="http://www.w3.org/2000/svg" version="1.1">
 <metadata>
  <rdf:RDF xmlns:dc="http://purl.org/dc/elements/1.1/" xmlns:cc="http://creativecommons.org/ns#" xmlns:rdf="http://www.w3.org/1999/02/22-rdf-syntax-ns#">
   <cc:Work>
    <dc:type rdf:resource="http://purl.org/dc/dcmitype/StillImage"/>
    <dc:date>2021-11-26T20:01:01.996056</dc:date>
    <dc:format>image/svg+xml</dc:format>
    <dc:creator>
     <cc:Agent>
      <dc:title>Matplotlib v3.5.0, https://matplotlib.org/</dc:title>
     </cc:Agent>
    </dc:creator>
   </cc:Work>
  </rdf:RDF>
 </metadata>
 <defs>
  <style type="text/css">*{stroke-linejoin: round; stroke-linecap: butt}</style>
 </defs>
 <g id="figure_1">
  <g id="patch_1">
   <path d="M 0 396 
L 576 396 
L 576 0 
L 0 0 
z
" style="fill: #ffffff"/>
  </g>
  <g id="axes_1">
   <g id="patch_2">
    <path d="M 72 346.5 
L 518.4 346.5 
L 518.4 47.52 
L 72 47.52 
z
" style="fill: #eaeaf2"/>
   </g>
   <g id="matplotlib.axis_1">
    <g id="xtick_1">
     <g id="line2d_1">
      <path d="M 92.290909 346.5 
L 92.290909 47.52 
" clip-path="url(#p648d0c1db6)" style="fill: none; stroke: #ffffff; stroke-linecap: round"/>
     </g>
     <g id="line2d_2"/>
     <g id="text_1">
      <!-- 0 -->
      <g style="fill: #262626" transform="translate(89.51044 360.657812)scale(0.1 -0.1)">
       <defs>
        <path id="ArialMT-30" d="M 266 2259 
Q 266 3072 433 3567 
Q 600 4063 929 4331 
Q 1259 4600 1759 4600 
Q 2128 4600 2406 4451 
Q 2684 4303 2865 4023 
Q 3047 3744 3150 3342 
Q 3253 2941 3253 2259 
Q 3253 1453 3087 958 
Q 2922 463 2592 192 
Q 2263 -78 1759 -78 
Q 1097 -78 719 397 
Q 266 969 266 2259 
z
M 844 2259 
Q 844 1131 1108 757 
Q 1372 384 1759 384 
Q 2147 384 2411 759 
Q 2675 1134 2675 2259 
Q 2675 3391 2411 3762 
Q 2147 4134 1753 4134 
Q 1366 4134 1134 3806 
Q 844 3388 844 2259 
z
" transform="scale(0.015625)"/>
       </defs>
       <use xlink:href="#ArialMT-30"/>
      </g>
     </g>
    </g>
    <g id="xtick_2">
     <g id="line2d_3">
      <path d="M 148.265831 346.5 
L 148.265831 47.52 
" clip-path="url(#p648d0c1db6)" style="fill: none; stroke: #ffffff; stroke-linecap: round"/>
     </g>
     <g id="line2d_4"/>
     <g id="text_2">
      <!-- 20 -->
      <g style="fill: #262626" transform="translate(142.704893 360.657812)scale(0.1 -0.1)">
       <defs>
        <path id="ArialMT-32" d="M 3222 541 
L 3222 0 
L 194 0 
Q 188 203 259 391 
Q 375 700 629 1000 
Q 884 1300 1366 1694 
Q 2113 2306 2375 2664 
Q 2638 3022 2638 3341 
Q 2638 3675 2398 3904 
Q 2159 4134 1775 4134 
Q 1369 4134 1125 3890 
Q 881 3647 878 3216 
L 300 3275 
Q 359 3922 746 4261 
Q 1134 4600 1788 4600 
Q 2447 4600 2831 4234 
Q 3216 3869 3216 3328 
Q 3216 3053 3103 2787 
Q 2991 2522 2730 2228 
Q 2469 1934 1863 1422 
Q 1356 997 1212 845 
Q 1069 694 975 541 
L 3222 541 
z
" transform="scale(0.015625)"/>
       </defs>
       <use xlink:href="#ArialMT-32"/>
       <use xlink:href="#ArialMT-30" x="55.615234"/>
      </g>
     </g>
    </g>
    <g id="xtick_3">
     <g id="line2d_5">
      <path d="M 204.240752 346.5 
L 204.240752 47.52 
" clip-path="url(#p648d0c1db6)" style="fill: none; stroke: #ffffff; stroke-linecap: round"/>
     </g>
     <g id="line2d_6"/>
     <g id="text_3">
      <!-- 40 -->
      <g style="fill: #262626" transform="translate(198.679815 360.657812)scale(0.1 -0.1)">
       <defs>
        <path id="ArialMT-34" d="M 2069 0 
L 2069 1097 
L 81 1097 
L 81 1613 
L 2172 4581 
L 2631 4581 
L 2631 1613 
L 3250 1613 
L 3250 1097 
L 2631 1097 
L 2631 0 
L 2069 0 
z
M 2069 1613 
L 2069 3678 
L 634 1613 
L 2069 1613 
z
" transform="scale(0.015625)"/>
       </defs>
       <use xlink:href="#ArialMT-34"/>
       <use xlink:href="#ArialMT-30" x="55.615234"/>
      </g>
     </g>
    </g>
    <g id="xtick_4">
     <g id="line2d_7">
      <path d="M 260.215674 346.5 
L 260.215674 47.52 
" clip-path="url(#p648d0c1db6)" style="fill: none; stroke: #ffffff; stroke-linecap: round"/>
     </g>
     <g id="line2d_8"/>
     <g id="text_4">
      <!-- 60 -->
      <g style="fill: #262626" transform="translate(254.654736 360.657812)scale(0.1 -0.1)">
       <defs>
        <path id="ArialMT-36" d="M 3184 3459 
L 2625 3416 
Q 2550 3747 2413 3897 
Q 2184 4138 1850 4138 
Q 1581 4138 1378 3988 
Q 1113 3794 959 3422 
Q 806 3050 800 2363 
Q 1003 2672 1297 2822 
Q 1591 2972 1913 2972 
Q 2475 2972 2870 2558 
Q 3266 2144 3266 1488 
Q 3266 1056 3080 686 
Q 2894 316 2569 119 
Q 2244 -78 1831 -78 
Q 1128 -78 684 439 
Q 241 956 241 2144 
Q 241 3472 731 4075 
Q 1159 4600 1884 4600 
Q 2425 4600 2770 4297 
Q 3116 3994 3184 3459 
z
M 888 1484 
Q 888 1194 1011 928 
Q 1134 663 1356 523 
Q 1578 384 1822 384 
Q 2178 384 2434 671 
Q 2691 959 2691 1453 
Q 2691 1928 2437 2201 
Q 2184 2475 1800 2475 
Q 1419 2475 1153 2201 
Q 888 1928 888 1484 
z
" transform="scale(0.015625)"/>
       </defs>
       <use xlink:href="#ArialMT-36"/>
       <use xlink:href="#ArialMT-30" x="55.615234"/>
      </g>
     </g>
    </g>
    <g id="xtick_5">
     <g id="line2d_9">
      <path d="M 316.190596 346.5 
L 316.190596 47.52 
" clip-path="url(#p648d0c1db6)" style="fill: none; stroke: #ffffff; stroke-linecap: round"/>
     </g>
     <g id="line2d_10"/>
     <g id="text_5">
      <!-- 80 -->
      <g style="fill: #262626" transform="translate(310.629658 360.657812)scale(0.1 -0.1)">
       <defs>
        <path id="ArialMT-38" d="M 1131 2484 
Q 781 2613 612 2850 
Q 444 3088 444 3419 
Q 444 3919 803 4259 
Q 1163 4600 1759 4600 
Q 2359 4600 2725 4251 
Q 3091 3903 3091 3403 
Q 3091 3084 2923 2848 
Q 2756 2613 2416 2484 
Q 2838 2347 3058 2040 
Q 3278 1734 3278 1309 
Q 3278 722 2862 322 
Q 2447 -78 1769 -78 
Q 1091 -78 675 323 
Q 259 725 259 1325 
Q 259 1772 486 2073 
Q 713 2375 1131 2484 
z
M 1019 3438 
Q 1019 3113 1228 2906 
Q 1438 2700 1772 2700 
Q 2097 2700 2305 2904 
Q 2513 3109 2513 3406 
Q 2513 3716 2298 3927 
Q 2084 4138 1766 4138 
Q 1444 4138 1231 3931 
Q 1019 3725 1019 3438 
z
M 838 1322 
Q 838 1081 952 856 
Q 1066 631 1291 507 
Q 1516 384 1775 384 
Q 2178 384 2440 643 
Q 2703 903 2703 1303 
Q 2703 1709 2433 1975 
Q 2163 2241 1756 2241 
Q 1359 2241 1098 1978 
Q 838 1716 838 1322 
z
" transform="scale(0.015625)"/>
       </defs>
       <use xlink:href="#ArialMT-38"/>
       <use xlink:href="#ArialMT-30" x="55.615234"/>
      </g>
     </g>
    </g>
    <g id="xtick_6">
     <g id="line2d_11">
      <path d="M 372.165517 346.5 
L 372.165517 47.52 
" clip-path="url(#p648d0c1db6)" style="fill: none; stroke: #ffffff; stroke-linecap: round"/>
     </g>
     <g id="line2d_12"/>
     <g id="text_6">
      <!-- 100 -->
      <g style="fill: #262626" transform="translate(363.824111 360.657812)scale(0.1 -0.1)">
       <defs>
        <path id="ArialMT-31" d="M 2384 0 
L 1822 0 
L 1822 3584 
Q 1619 3391 1289 3197 
Q 959 3003 697 2906 
L 697 3450 
Q 1169 3672 1522 3987 
Q 1875 4303 2022 4600 
L 2384 4600 
L 2384 0 
z
" transform="scale(0.015625)"/>
       </defs>
       <use xlink:href="#ArialMT-31"/>
       <use xlink:href="#ArialMT-30" x="55.615234"/>
       <use xlink:href="#ArialMT-30" x="111.230469"/>
      </g>
     </g>
    </g>
    <g id="xtick_7">
     <g id="line2d_13">
      <path d="M 428.140439 346.5 
L 428.140439 47.52 
" clip-path="url(#p648d0c1db6)" style="fill: none; stroke: #ffffff; stroke-linecap: round"/>
     </g>
     <g id="line2d_14"/>
     <g id="text_7">
      <!-- 120 -->
      <g style="fill: #262626" transform="translate(419.799033 360.657812)scale(0.1 -0.1)">
       <use xlink:href="#ArialMT-31"/>
       <use xlink:href="#ArialMT-32" x="55.615234"/>
       <use xlink:href="#ArialMT-30" x="111.230469"/>
      </g>
     </g>
    </g>
    <g id="xtick_8">
     <g id="line2d_15">
      <path d="M 484.115361 346.5 
L 484.115361 47.52 
" clip-path="url(#p648d0c1db6)" style="fill: none; stroke: #ffffff; stroke-linecap: round"/>
     </g>
     <g id="line2d_16"/>
     <g id="text_8">
      <!-- 140 -->
      <g style="fill: #262626" transform="translate(475.773954 360.657812)scale(0.1 -0.1)">
       <use xlink:href="#ArialMT-31"/>
       <use xlink:href="#ArialMT-34" x="55.615234"/>
       <use xlink:href="#ArialMT-30" x="111.230469"/>
      </g>
     </g>
    </g>
   </g>
   <g id="matplotlib.axis_2">
    <g id="ytick_1">
     <g id="line2d_17">
      <path d="M 72 346.5 
L 518.4 346.5 
" clip-path="url(#p648d0c1db6)" style="fill: none; stroke: #ffffff; stroke-linecap: round"/>
     </g>
     <g id="line2d_18"/>
     <g id="text_9">
      <!-- 0 -->
      <g style="fill: #262626" transform="translate(59.439062 350.078906)scale(0.1 -0.1)">
       <use xlink:href="#ArialMT-30"/>
      </g>
     </g>
    </g>
    <g id="ytick_2">
     <g id="line2d_19">
      <path d="M 72 309.1275 
L 518.4 309.1275 
" clip-path="url(#p648d0c1db6)" style="fill: none; stroke: #ffffff; stroke-linecap: round"/>
     </g>
     <g id="line2d_20"/>
     <g id="text_10">
      <!-- 25 -->
      <g style="fill: #262626" transform="translate(53.878125 312.706406)scale(0.1 -0.1)">
       <defs>
        <path id="ArialMT-35" d="M 266 1200 
L 856 1250 
Q 922 819 1161 601 
Q 1400 384 1738 384 
Q 2144 384 2425 690 
Q 2706 997 2706 1503 
Q 2706 1984 2436 2262 
Q 2166 2541 1728 2541 
Q 1456 2541 1237 2417 
Q 1019 2294 894 2097 
L 366 2166 
L 809 4519 
L 3088 4519 
L 3088 3981 
L 1259 3981 
L 1013 2750 
Q 1425 3038 1878 3038 
Q 2478 3038 2890 2622 
Q 3303 2206 3303 1553 
Q 3303 931 2941 478 
Q 2500 -78 1738 -78 
Q 1113 -78 717 272 
Q 322 622 266 1200 
z
" transform="scale(0.015625)"/>
       </defs>
       <use xlink:href="#ArialMT-32"/>
       <use xlink:href="#ArialMT-35" x="55.615234"/>
      </g>
     </g>
    </g>
    <g id="ytick_3">
     <g id="line2d_21">
      <path d="M 72 271.755 
L 518.4 271.755 
" clip-path="url(#p648d0c1db6)" style="fill: none; stroke: #ffffff; stroke-linecap: round"/>
     </g>
     <g id="line2d_22"/>
     <g id="text_11">
      <!-- 50 -->
      <g style="fill: #262626" transform="translate(53.878125 275.333906)scale(0.1 -0.1)">
       <use xlink:href="#ArialMT-35"/>
       <use xlink:href="#ArialMT-30" x="55.615234"/>
      </g>
     </g>
    </g>
    <g id="ytick_4">
     <g id="line2d_23">
      <path d="M 72 234.3825 
L 518.4 234.3825 
" clip-path="url(#p648d0c1db6)" style="fill: none; stroke: #ffffff; stroke-linecap: round"/>
     </g>
     <g id="line2d_24"/>
     <g id="text_12">
      <!-- 75 -->
      <g style="fill: #262626" transform="translate(53.878125 237.961406)scale(0.1 -0.1)">
       <defs>
        <path id="ArialMT-37" d="M 303 3981 
L 303 4522 
L 3269 4522 
L 3269 4084 
Q 2831 3619 2401 2847 
Q 1972 2075 1738 1259 
Q 1569 684 1522 0 
L 944 0 
Q 953 541 1156 1306 
Q 1359 2072 1739 2783 
Q 2119 3494 2547 3981 
L 303 3981 
z
" transform="scale(0.015625)"/>
       </defs>
       <use xlink:href="#ArialMT-37"/>
       <use xlink:href="#ArialMT-35" x="55.615234"/>
      </g>
     </g>
    </g>
    <g id="ytick_5">
     <g id="line2d_25">
      <path d="M 72 197.01 
L 518.4 197.01 
" clip-path="url(#p648d0c1db6)" style="fill: none; stroke: #ffffff; stroke-linecap: round"/>
     </g>
     <g id="line2d_26"/>
     <g id="text_13">
      <!-- 100 -->
      <g style="fill: #262626" transform="translate(48.317188 200.588906)scale(0.1 -0.1)">
       <use xlink:href="#ArialMT-31"/>
       <use xlink:href="#ArialMT-30" x="55.615234"/>
       <use xlink:href="#ArialMT-30" x="111.230469"/>
      </g>
     </g>
    </g>
    <g id="ytick_6">
     <g id="line2d_27">
      <path d="M 72 159.6375 
L 518.4 159.6375 
" clip-path="url(#p648d0c1db6)" style="fill: none; stroke: #ffffff; stroke-linecap: round"/>
     </g>
     <g id="line2d_28"/>
     <g id="text_14">
      <!-- 125 -->
      <g style="fill: #262626" transform="translate(48.317188 163.216406)scale(0.1 -0.1)">
       <use xlink:href="#ArialMT-31"/>
       <use xlink:href="#ArialMT-32" x="55.615234"/>
       <use xlink:href="#ArialMT-35" x="111.230469"/>
      </g>
     </g>
    </g>
    <g id="ytick_7">
     <g id="line2d_29">
      <path d="M 72 122.265 
L 518.4 122.265 
" clip-path="url(#p648d0c1db6)" style="fill: none; stroke: #ffffff; stroke-linecap: round"/>
     </g>
     <g id="line2d_30"/>
     <g id="text_15">
      <!-- 150 -->
      <g style="fill: #262626" transform="translate(48.317188 125.843906)scale(0.1 -0.1)">
       <use xlink:href="#ArialMT-31"/>
       <use xlink:href="#ArialMT-35" x="55.615234"/>
       <use xlink:href="#ArialMT-30" x="111.230469"/>
      </g>
     </g>
    </g>
    <g id="ytick_8">
     <g id="line2d_31">
      <path d="M 72 84.8925 
L 518.4 84.8925 
" clip-path="url(#p648d0c1db6)" style="fill: none; stroke: #ffffff; stroke-linecap: round"/>
     </g>
     <g id="line2d_32"/>
     <g id="text_16">
      <!-- 175 -->
      <g style="fill: #262626" transform="translate(48.317188 88.471406)scale(0.1 -0.1)">
       <use xlink:href="#ArialMT-31"/>
       <use xlink:href="#ArialMT-37" x="55.615234"/>
       <use xlink:href="#ArialMT-35" x="111.230469"/>
      </g>
     </g>
    </g>
    <g id="ytick_9">
     <g id="line2d_33">
      <path d="M 72 47.52 
L 518.4 47.52 
" clip-path="url(#p648d0c1db6)" style="fill: none; stroke: #ffffff; stroke-linecap: round"/>
     </g>
     <g id="line2d_34"/>
     <g id="text_17">
      <!-- 200 -->
      <g style="fill: #262626" transform="translate(48.317188 51.098906)scale(0.1 -0.1)">
       <use xlink:href="#ArialMT-32"/>
       <use xlink:href="#ArialMT-30" x="55.615234"/>
       <use xlink:href="#ArialMT-30" x="111.230469"/>
      </g>
     </g>
    </g>
   </g>
   <g id="line2d_35">
    <path d="M 0 0 
" clip-path="url(#p648d0c1db6)" style="fill: none; stroke: #4c72b0; stroke-width: 1.75; stroke-linecap: round"/>
   </g>
   <g id="line2d_36">
    <path d="M 0 0 
" clip-path="url(#p648d0c1db6)" style="fill: none; stroke: #55a868; stroke-width: 1.75; stroke-linecap: round"/>
   </g>
   <g id="line2d_37">
    <path d="M 92.290909 185.406997 
L 95.089655 185.55047 
L 97.888401 186.097286 
L 100.687147 188.546728 
L 103.485893 196.05836 
L 111.882132 234.575665 
L 114.680878 244.198564 
L 117.479624 243.837244 
L 120.27837 241.535631 
L 123.077116 239.876986 
L 125.875862 240.103103 
L 128.674608 242.415308 
L 131.473354 247.321541 
L 137.070846 261.943532 
L 139.869592 266.629242 
L 142.668339 269.617316 
L 145.467085 271.429869 
L 148.265831 272.710004 
L 151.064577 274.139948 
L 153.863323 275.209587 
L 159.460815 275.946342 
L 162.259561 276.525233 
L 165.058307 276.497725 
L 167.857053 276.647321 
L 170.655799 277.142163 
L 176.253292 277.157368 
L 179.052038 277.486399 
L 181.850784 277.150588 
L 184.64953 277.890531 
L 187.448276 277.702234 
L 190.247022 277.316709 
L 193.045768 276.721641 
L 195.844514 277.430493 
L 207.039498 277.5479 
L 212.636991 278.734187 
L 215.435737 278.780156 
L 218.234483 278.3621 
L 221.033229 279.094349 
L 223.831975 278.59013 
L 226.630721 278.717467 
L 229.429467 279.447969 
L 232.228213 278.515384 
L 235.026959 278.904978 
L 237.825705 277.858506 
L 243.423197 277.215083 
L 249.02069 278.68527 
L 251.819436 277.72032 
L 257.416928 277.4469 
L 260.215674 278.238145 
L 263.01442 277.483661 
L 265.813166 276.593622 
L 268.611912 276.874268 
L 271.410658 277.480519 
L 274.209404 277.677038 
L 277.00815 277.544666 
L 279.806897 278.069566 
L 282.605643 277.672142 
L 285.404389 278.522618 
L 288.203135 278.872795 
L 291.001881 278.68566 
L 293.800627 277.811055 
L 296.599373 277.759976 
L 299.398119 277.365298 
L 302.196865 278.036983 
L 304.995611 278.446192 
L 310.593103 278.505913 
L 313.39185 278.138322 
L 316.190596 278.155913 
L 318.989342 278.884139 
L 321.788088 278.278425 
L 324.586834 278.331883 
L 330.184326 279.324518 
L 332.983072 279.029369 
L 335.781818 278.85761 
L 338.580564 279.644438 
L 341.37931 278.48364 
L 344.178056 278.213512 
L 346.976803 279.208356 
L 349.775549 280.037955 
L 352.574295 279.040491 
L 355.373041 278.826211 
L 358.171787 279.305948 
L 363.769279 278.623184 
L 366.568025 278.997091 
L 369.366771 279.010457 
L 372.165517 278.764002 
L 374.964263 279.075556 
L 377.763009 279.544327 
L 383.360502 278.950578 
L 386.159248 278.349927 
L 388.957994 279.235084 
L 411.347962 279.226505 
L 414.146708 279.266406 
L 416.945455 279.187061 
L 419.744201 279.371562 
L 422.542947 279.190231 
L 436.536677 279.371638 
L 442.134169 279.31909 
L 450.530408 279.371513 
L 453.329154 279.241325 
L 458.926646 279.364341 
L 461.725392 279.455839 
L 467.322884 279.428221 
L 470.12163 279.530255 
L 475.719122 279.433182 
L 481.316614 279.486915 
L 484.115361 279.420119 
L 486.914107 279.607116 
L 489.712853 279.492463 
L 498.109091 279.607531 
L 498.109091 279.607531 
" clip-path="url(#p648d0c1db6)" style="fill: none; stroke: #c44e52; stroke-width: 1.75; stroke-linecap: round"/>
   </g>
   <g id="line2d_38">
    <path d="M 116.802797 -1 
L 117.479624 12.078639 
L 120.27837 38.065481 
L 123.077116 50.54044 
L 131.473354 71.573273 
L 134.2721 77.58088 
L 137.070846 82.327426 
L 139.869592 85.202929 
L 142.668339 86.505119 
L 145.467085 87.376992 
L 148.265831 88.479464 
L 151.064577 89.133505 
L 165.058307 90.624416 
L 173.454545 91.954855 
L 176.253292 92.543671 
L 179.052038 92.969771 
L 184.64953 94.520034 
L 190.247022 95.397566 
L 193.045768 95.737704 
L 198.64326 97.521488 
L 204.240752 99.3878 
L 207.039498 100.588259 
L 212.636991 103.451417 
L 215.435737 104.676077 
L 218.234483 105.592234 
L 221.033229 106.935644 
L 226.630721 108.308704 
L 229.429467 109.080105 
L 232.228213 108.970927 
L 235.026959 109.3097 
L 237.825705 109.161135 
L 243.423197 109.299754 
L 249.02069 110.286955 
L 251.819436 110.093246 
L 257.416928 110.313213 
L 260.215674 110.91046 
L 265.813166 110.438581 
L 271.410658 110.962493 
L 274.209404 111.192208 
L 279.806897 111.449407 
L 282.605643 111.337924 
L 285.404389 111.74464 
L 291.001881 112.115092 
L 293.800627 111.905967 
L 296.599373 112.053743 
L 299.398119 112.066279 
L 302.196865 112.316995 
L 304.995611 112.714039 
L 307.794357 112.775716 
L 310.593103 113.008432 
L 313.39185 113.004017 
L 316.190596 113.143061 
L 318.989342 113.58741 
L 321.788088 113.407264 
L 327.38558 113.944196 
L 330.184326 114.367225 
L 335.781818 114.566068 
L 338.580564 115.096959 
L 341.37931 114.902816 
L 344.178056 114.960562 
L 349.775549 115.944222 
L 352.574295 115.724685 
L 355.373041 115.872919 
L 358.171787 116.235308 
L 363.769279 116.303199 
L 369.366771 116.771247 
L 372.165517 116.858553 
L 380.561755 117.457956 
L 383.360502 117.576215 
L 386.159248 117.414564 
L 388.957994 117.91741 
L 447.731661 118.299834 
L 481.316614 118.563238 
L 489.712853 118.614326 
L 498.109091 118.714295 
L 498.109091 118.714295 
" clip-path="url(#p648d0c1db6)" style="fill: none; stroke: #8172b2; stroke-width: 1.75; stroke-linecap: round"/>
   </g>
   <g id="patch_3">
    <path d="M 72 346.5 
L 72 47.52 
" style="fill: none"/>
   </g>
   <g id="patch_4">
    <path d="M 518.4 346.5 
L 518.4 47.52 
" style="fill: none"/>
   </g>
   <g id="patch_5">
    <path d="M 72 346.5 
L 518.4 346.5 
" style="fill: none"/>
   </g>
   <g id="patch_6">
    <path d="M 72 47.52 
L 518.4 47.52 
" style="fill: none"/>
   </g>
   <g id="legend_1">
    <g id="line2d_39">
     <path d="M 430.826562 60.177812 
L 440.826562 60.177812 
L 450.826562 60.177812 
" style="fill: none; stroke: #4c72b0; stroke-width: 1.75; stroke-linecap: round"/>
    </g>
    <g id="text_18">
     <!-- train -->
     <g style="fill: #262626" transform="translate(458.826562 63.677812)scale(0.1 -0.1)">
      <defs>
       <path id="ArialMT-74" d="M 1650 503 
L 1731 6 
Q 1494 -44 1306 -44 
Q 1000 -44 831 53 
Q 663 150 594 308 
Q 525 466 525 972 
L 525 2881 
L 113 2881 
L 113 3319 
L 525 3319 
L 525 4141 
L 1084 4478 
L 1084 3319 
L 1650 3319 
L 1650 2881 
L 1084 2881 
L 1084 941 
Q 1084 700 1114 631 
Q 1144 563 1211 522 
Q 1278 481 1403 481 
Q 1497 481 1650 503 
z
" transform="scale(0.015625)"/>
       <path id="ArialMT-72" d="M 416 0 
L 416 3319 
L 922 3319 
L 922 2816 
Q 1116 3169 1280 3281 
Q 1444 3394 1641 3394 
Q 1925 3394 2219 3213 
L 2025 2691 
Q 1819 2813 1613 2813 
Q 1428 2813 1281 2702 
Q 1134 2591 1072 2394 
Q 978 2094 978 1738 
L 978 0 
L 416 0 
z
" transform="scale(0.015625)"/>
       <path id="ArialMT-61" d="M 2588 409 
Q 2275 144 1986 34 
Q 1697 -75 1366 -75 
Q 819 -75 525 192 
Q 231 459 231 875 
Q 231 1119 342 1320 
Q 453 1522 633 1644 
Q 813 1766 1038 1828 
Q 1203 1872 1538 1913 
Q 2219 1994 2541 2106 
Q 2544 2222 2544 2253 
Q 2544 2597 2384 2738 
Q 2169 2928 1744 2928 
Q 1347 2928 1158 2789 
Q 969 2650 878 2297 
L 328 2372 
Q 403 2725 575 2942 
Q 747 3159 1072 3276 
Q 1397 3394 1825 3394 
Q 2250 3394 2515 3294 
Q 2781 3194 2906 3042 
Q 3031 2891 3081 2659 
Q 3109 2516 3109 2141 
L 3109 1391 
Q 3109 606 3145 398 
Q 3181 191 3288 0 
L 2700 0 
Q 2613 175 2588 409 
z
M 2541 1666 
Q 2234 1541 1622 1453 
Q 1275 1403 1131 1340 
Q 988 1278 909 1158 
Q 831 1038 831 891 
Q 831 666 1001 516 
Q 1172 366 1500 366 
Q 1825 366 2078 508 
Q 2331 650 2450 897 
Q 2541 1088 2541 1459 
L 2541 1666 
z
" transform="scale(0.015625)"/>
       <path id="ArialMT-69" d="M 425 3934 
L 425 4581 
L 988 4581 
L 988 3934 
L 425 3934 
z
M 425 0 
L 425 3319 
L 988 3319 
L 988 0 
L 425 0 
z
" transform="scale(0.015625)"/>
       <path id="ArialMT-6e" d="M 422 0 
L 422 3319 
L 928 3319 
L 928 2847 
Q 1294 3394 1984 3394 
Q 2284 3394 2536 3286 
Q 2788 3178 2913 3003 
Q 3038 2828 3088 2588 
Q 3119 2431 3119 2041 
L 3119 0 
L 2556 0 
L 2556 2019 
Q 2556 2363 2490 2533 
Q 2425 2703 2258 2804 
Q 2091 2906 1866 2906 
Q 1506 2906 1245 2678 
Q 984 2450 984 1813 
L 984 0 
L 422 0 
z
" transform="scale(0.015625)"/>
      </defs>
      <use xlink:href="#ArialMT-74"/>
      <use xlink:href="#ArialMT-72" x="27.783203"/>
      <use xlink:href="#ArialMT-61" x="61.083984"/>
      <use xlink:href="#ArialMT-69" x="116.699219"/>
      <use xlink:href="#ArialMT-6e" x="138.916016"/>
     </g>
    </g>
    <g id="line2d_40">
     <path d="M 430.826562 74.323125 
L 440.826562 74.323125 
L 450.826562 74.323125 
" style="fill: none; stroke: #55a868; stroke-width: 1.75; stroke-linecap: round"/>
    </g>
    <g id="text_19">
     <!-- test -->
     <g style="fill: #262626" transform="translate(458.826562 77.823125)scale(0.1 -0.1)">
      <defs>
       <path id="ArialMT-65" d="M 2694 1069 
L 3275 997 
Q 3138 488 2766 206 
Q 2394 -75 1816 -75 
Q 1088 -75 661 373 
Q 234 822 234 1631 
Q 234 2469 665 2931 
Q 1097 3394 1784 3394 
Q 2450 3394 2872 2941 
Q 3294 2488 3294 1666 
Q 3294 1616 3291 1516 
L 816 1516 
Q 847 969 1125 678 
Q 1403 388 1819 388 
Q 2128 388 2347 550 
Q 2566 713 2694 1069 
z
M 847 1978 
L 2700 1978 
Q 2663 2397 2488 2606 
Q 2219 2931 1791 2931 
Q 1403 2931 1139 2672 
Q 875 2413 847 1978 
z
" transform="scale(0.015625)"/>
       <path id="ArialMT-73" d="M 197 991 
L 753 1078 
Q 800 744 1014 566 
Q 1228 388 1613 388 
Q 2000 388 2187 545 
Q 2375 703 2375 916 
Q 2375 1106 2209 1216 
Q 2094 1291 1634 1406 
Q 1016 1563 777 1677 
Q 538 1791 414 1992 
Q 291 2194 291 2438 
Q 291 2659 392 2848 
Q 494 3038 669 3163 
Q 800 3259 1026 3326 
Q 1253 3394 1513 3394 
Q 1903 3394 2198 3281 
Q 2494 3169 2634 2976 
Q 2775 2784 2828 2463 
L 2278 2388 
Q 2241 2644 2061 2787 
Q 1881 2931 1553 2931 
Q 1166 2931 1000 2803 
Q 834 2675 834 2503 
Q 834 2394 903 2306 
Q 972 2216 1119 2156 
Q 1203 2125 1616 2013 
Q 2213 1853 2448 1751 
Q 2684 1650 2818 1456 
Q 2953 1263 2953 975 
Q 2953 694 2789 445 
Q 2625 197 2315 61 
Q 2006 -75 1616 -75 
Q 969 -75 630 194 
Q 291 463 197 991 
z
" transform="scale(0.015625)"/>
      </defs>
      <use xlink:href="#ArialMT-74"/>
      <use xlink:href="#ArialMT-65" x="27.783203"/>
      <use xlink:href="#ArialMT-73" x="83.398438"/>
      <use xlink:href="#ArialMT-74" x="133.398438"/>
     </g>
    </g>
    <g id="line2d_41">
     <path d="M 430.826562 88.468437 
L 440.826562 88.468437 
L 450.826562 88.468437 
" style="fill: none; stroke: #c44e52; stroke-width: 1.75; stroke-linecap: round"/>
    </g>
    <g id="text_20">
     <!-- Metric -->
     <g style="fill: #262626" transform="translate(458.826562 91.968437)scale(0.1 -0.1)">
      <defs>
       <path id="ArialMT-4d" d="M 475 0 
L 475 4581 
L 1388 4581 
L 2472 1338 
Q 2622 884 2691 659 
Q 2769 909 2934 1394 
L 4031 4581 
L 4847 4581 
L 4847 0 
L 4263 0 
L 4263 3834 
L 2931 0 
L 2384 0 
L 1059 3900 
L 1059 0 
L 475 0 
z
" transform="scale(0.015625)"/>
       <path id="ArialMT-63" d="M 2588 1216 
L 3141 1144 
Q 3050 572 2676 248 
Q 2303 -75 1759 -75 
Q 1078 -75 664 370 
Q 250 816 250 1647 
Q 250 2184 428 2587 
Q 606 2991 970 3192 
Q 1334 3394 1763 3394 
Q 2303 3394 2647 3120 
Q 2991 2847 3088 2344 
L 2541 2259 
Q 2463 2594 2264 2762 
Q 2066 2931 1784 2931 
Q 1359 2931 1093 2626 
Q 828 2322 828 1663 
Q 828 994 1084 691 
Q 1341 388 1753 388 
Q 2084 388 2306 591 
Q 2528 794 2588 1216 
z
" transform="scale(0.015625)"/>
      </defs>
      <use xlink:href="#ArialMT-4d"/>
      <use xlink:href="#ArialMT-65" x="83.300781"/>
      <use xlink:href="#ArialMT-74" x="138.916016"/>
      <use xlink:href="#ArialMT-72" x="166.699219"/>
      <use xlink:href="#ArialMT-69" x="200"/>
      <use xlink:href="#ArialMT-63" x="222.216797"/>
     </g>
    </g>
    <g id="line2d_42">
     <path d="M 430.826562 102.61375 
L 440.826562 102.61375 
L 450.826562 102.61375 
" style="fill: none; stroke: #8172b2; stroke-width: 1.75; stroke-linecap: round"/>
    </g>
    <g id="text_21">
     <!-- Uncertainty -->
     <g style="fill: #262626" transform="translate(458.826562 106.11375)scale(0.1 -0.1)">
      <defs>
       <path id="ArialMT-55" d="M 3500 4581 
L 4106 4581 
L 4106 1934 
Q 4106 1244 3950 837 
Q 3794 431 3386 176 
Q 2978 -78 2316 -78 
Q 1672 -78 1262 144 
Q 853 366 678 786 
Q 503 1206 503 1934 
L 503 4581 
L 1109 4581 
L 1109 1938 
Q 1109 1341 1220 1058 
Q 1331 775 1601 622 
Q 1872 469 2263 469 
Q 2931 469 3215 772 
Q 3500 1075 3500 1938 
L 3500 4581 
z
" transform="scale(0.015625)"/>
       <path id="ArialMT-79" d="M 397 -1278 
L 334 -750 
Q 519 -800 656 -800 
Q 844 -800 956 -737 
Q 1069 -675 1141 -563 
Q 1194 -478 1313 -144 
Q 1328 -97 1363 -6 
L 103 3319 
L 709 3319 
L 1400 1397 
Q 1534 1031 1641 628 
Q 1738 1016 1872 1384 
L 2581 3319 
L 3144 3319 
L 1881 -56 
Q 1678 -603 1566 -809 
Q 1416 -1088 1222 -1217 
Q 1028 -1347 759 -1347 
Q 597 -1347 397 -1278 
z
" transform="scale(0.015625)"/>
      </defs>
      <use xlink:href="#ArialMT-55"/>
      <use xlink:href="#ArialMT-6e" x="72.216797"/>
      <use xlink:href="#ArialMT-63" x="127.832031"/>
      <use xlink:href="#ArialMT-65" x="177.832031"/>
      <use xlink:href="#ArialMT-72" x="233.447266"/>
      <use xlink:href="#ArialMT-74" x="266.748047"/>
      <use xlink:href="#ArialMT-61" x="294.53125"/>
      <use xlink:href="#ArialMT-69" x="350.146484"/>
      <use xlink:href="#ArialMT-6e" x="372.363281"/>
      <use xlink:href="#ArialMT-74" x="427.978516"/>
      <use xlink:href="#ArialMT-79" x="455.761719"/>
     </g>
    </g>
   </g>
  </g>
 </g>
 <defs>
  <clipPath id="p648d0c1db6">
   <rect x="72" y="47.52" width="446.4" height="298.98"/>
  </clipPath>
 </defs>
</svg>
